<svg width="550" height="550" xmlns="http://www.w3.org/2000/svg">
  <path id="taipy_logo" d="m360.79,428.46001l-0.26,-285.73l66.59,0a97.77,97.77 0 0 0 97.88,-97.66l0,0a20.1,20.1 0 0 0 -20.12,-20.07l-459.76,0a20.1,20.1 0 0 0 -20.12,20.07a97.77,97.77 0 0 0 97.89,97.66l56.34,0a165.53,165.53 0 0 0 -7.32,48.82l0,241.45a92.09,92.09 0 0 0 92.2,92l0,0a96.57,96.57 0 0 0 96.68,-96.54zm-289.39,-357.46a4,4 0 0 1 3.63,-5.81l155.24,0a168.12,168.12 0 0 0 -32.5,37.45l-74.89,0a57.74,57.74 0 0 1 -51.48,-31.64zm192.4,413.86a51.6,51.6 0 0 1 -51.66,-51.54l0,-241.77c0,-69.82 56.73,-126.41 126.7,-126.41l57.27,0c0.15,11 8.93,20 19.72,20a20.28,20.28 0 0 0 20.25,-20l38.92,0a4,4 0 0 1 3.6,5.86a57.74,57.74 0 0 1 -51.48,31.64l-66.25,0c-56.62,0 -115.26,30.41 -115.26,106.3l0,204.89a19.58,19.58 0 0 0 19.6,19.56a20.6,20.6 0 0 0 20.63,-20.58l0,-207c0,-29.51 17.46,-51.24 34.54,-58.78l-0.38,281.87a56.09,56.09 0 0 1 -56.2,55.96z"/>
</svg>
